{
	"patcher" : 	{
		"fileversion" : 1,
		"appversion" : 		{
			"major" : 8,
			"minor" : 6,
			"revision" : 5,
			"architecture" : "x64",
			"modernui" : 1
		}
,
		"classnamespace" : "box",
		"rect" : [ 1474.0, 77.0, 1452.0, 969.0 ],
		"bglocked" : 0,
		"openinpresentation" : 1,
		"default_fontsize" : 12.0,
		"default_fontface" : 0,
		"default_fontname" : "Arial",
		"gridonopen" : 1,
		"gridsize" : [ 15.0, 15.0 ],
		"gridsnaponopen" : 1,
		"objectsnaponopen" : 1,
		"statusbarvisible" : 2,
		"toolbarvisible" : 1,
		"lefttoolbarpinned" : 0,
		"toptoolbarpinned" : 0,
		"righttoolbarpinned" : 0,
		"bottomtoolbarpinned" : 0,
		"toolbars_unpinned_last_save" : 0,
		"tallnewobj" : 0,
		"boxanimatetime" : 200,
		"enablehscroll" : 1,
		"enablevscroll" : 1,
		"devicewidth" : 0.0,
		"description" : "",
		"digest" : "",
		"tags" : "",
		"style" : "",
		"subpatcher_template" : "",
		"assistshowspatchername" : 0,
		"boxes" : [ 			{
				"box" : 				{
					"bgcolor" : [ 1.0, 0.901960784313726, 0.8, 1.0 ],
					"checkedcolor" : [ 1.0, 0.501960784313725, 0.250980392156863, 1.0 ],
					"id" : "obj-50",
					"maxclass" : "toggle",
					"numinlets" : 1,
					"numoutlets" : 1,
					"outlettype" : [ "int" ],
					"parameter_enable" : 0,
					"patching_rect" : [ 951.0, 263.0, 24.0, 24.0 ],
					"presentation" : 1,
					"presentation_rect" : [ 20.0, 260.0, 26.0, 26.0 ],
					"uncheckedcolor" : [ 1.0, 0.749019607843137, 0.501960784313725, 1.0 ],
					"varname" : "onWind"
				}

			}
, 			{
				"box" : 				{
					"bgcolor" : [ 1.0, 0.901960784313726, 0.8, 1.0 ],
					"checkedcolor" : [ 1.0, 0.501960784313725, 0.250980392156863, 1.0 ],
					"id" : "obj-49",
					"maxclass" : "toggle",
					"numinlets" : 1,
					"numoutlets" : 1,
					"outlettype" : [ "int" ],
					"parameter_enable" : 0,
					"patching_rect" : [ 709.0, 263.0, 24.0, 24.0 ],
					"presentation" : 1,
					"presentation_rect" : [ 20.0, 232.0, 26.0, 26.0 ],
					"uncheckedcolor" : [ 1.0, 0.749019607843137, 0.501960784313725, 1.0 ],
					"varname" : "onWaves"
				}

			}
, 			{
				"box" : 				{
					"bgcolor" : [ 1.0, 0.901960784313726, 0.8, 1.0 ],
					"checkedcolor" : [ 1.0, 0.501960784313725, 0.250980392156863, 1.0 ],
					"id" : "obj-48",
					"maxclass" : "toggle",
					"numinlets" : 1,
					"numoutlets" : 1,
					"outlettype" : [ "int" ],
					"parameter_enable" : 0,
					"patching_rect" : [ 467.0, 263.0, 24.0, 24.0 ],
					"presentation" : 1,
					"presentation_rect" : [ 20.0, 204.0, 26.0, 26.0 ],
					"uncheckedcolor" : [ 1.0, 0.749019607843137, 0.501960784313725, 1.0 ],
					"varname" : "onWaterfall"
				}

			}
, 			{
				"box" : 				{
					"bgcolor" : [ 1.0, 0.901960784313726, 0.8, 1.0 ],
					"checkedcolor" : [ 1.0, 0.501960784313725, 0.250980392156863, 1.0 ],
					"id" : "obj-47",
					"maxclass" : "toggle",
					"numinlets" : 1,
					"numoutlets" : 1,
					"outlettype" : [ "int" ],
					"parameter_enable" : 0,
					"patching_rect" : [ 225.0, 263.0, 24.0, 24.0 ],
					"presentation" : 1,
					"presentation_rect" : [ 20.0, 176.0, 26.0, 26.0 ],
					"uncheckedcolor" : [ 1.0, 0.749019607843137, 0.501960784313725, 1.0 ],
					"varname" : "onRain"
				}

			}
, 			{
				"box" : 				{
					"bgcolor" : [ 1.0, 0.901960784313726, 0.8, 1.0 ],
					"checkedcolor" : [ 1.0, 0.501960784313725, 0.250980392156863, 1.0 ],
					"id" : "obj-46",
					"maxclass" : "toggle",
					"numinlets" : 1,
					"numoutlets" : 1,
					"outlettype" : [ "int" ],
					"parameter_enable" : 0,
					"patching_rect" : [ 951.0, 103.0, 24.0, 24.0 ],
					"presentation" : 1,
					"presentation_rect" : [ 20.0, 148.0, 26.0, 26.0 ],
					"uncheckedcolor" : [ 1.0, 0.749019607843137, 0.501960784313725, 1.0 ],
					"varname" : "onLeaves"
				}

			}
, 			{
				"box" : 				{
					"bgcolor" : [ 1.0, 0.901960784313726, 0.8, 1.0 ],
					"checkedcolor" : [ 1.0, 0.501960784313725, 0.250980392156863, 1.0 ],
					"id" : "obj-45",
					"maxclass" : "toggle",
					"numinlets" : 1,
					"numoutlets" : 1,
					"outlettype" : [ "int" ],
					"parameter_enable" : 0,
					"patching_rect" : [ 709.0, 103.0, 24.0, 24.0 ],
					"presentation" : 1,
					"presentation_rect" : [ 20.0, 120.0, 26.0, 26.0 ],
					"uncheckedcolor" : [ 1.0, 0.749019607843137, 0.501960784313725, 1.0 ],
					"varname" : "onCrickets"
				}

			}
, 			{
				"box" : 				{
					"bgcolor" : [ 1.0, 0.901960784313726, 0.8, 1.0 ],
					"checkedcolor" : [ 1.0, 0.501960784313725, 0.250980392156863, 1.0 ],
					"id" : "obj-44",
					"maxclass" : "toggle",
					"numinlets" : 1,
					"numoutlets" : 1,
					"outlettype" : [ "int" ],
					"parameter_enable" : 0,
					"patching_rect" : [ 467.0, 103.0, 24.0, 24.0 ],
					"presentation" : 1,
					"presentation_rect" : [ 20.0, 92.0, 26.0, 26.0 ],
					"uncheckedcolor" : [ 1.0, 0.749019607843137, 0.501960784313725, 1.0 ],
					"varname" : "onCampfire"
				}

			}
, 			{
				"box" : 				{
					"bgcolor" : [ 1.0, 0.901960784313726, 0.8, 1.0 ],
					"checkedcolor" : [ 1.0, 0.501960784313725, 0.250980392156863, 1.0 ],
					"id" : "obj-43",
					"maxclass" : "toggle",
					"numinlets" : 1,
					"numoutlets" : 1,
					"outlettype" : [ "int" ],
					"parameter_enable" : 0,
					"patching_rect" : [ 225.0, 103.0, 24.0, 24.0 ],
					"presentation" : 1,
					"presentation_rect" : [ 20.0, 64.0, 26.0, 26.0 ],
					"uncheckedcolor" : [ 1.0, 0.749019607843137, 0.501960784313725, 1.0 ],
					"varname" : "onBirds"
				}

			}
, 			{
				"box" : 				{
					"id" : "obj-2",
					"maxclass" : "newobj",
					"numinlets" : 1,
					"numoutlets" : 4,
					"outlettype" : [ "", "", "", "" ],
					"patching_rect" : [ 1135.0, 698.0, 56.0, 22.0 ],
					"restore" : 					{
						"audioBirds" : [ 							{
								"data" : 								{
									"clips" : [ 										{
											"absolutepath" : "birds.wav",
											"filename" : "birds.wav",
											"filekind" : "audiofile",
											"id" : "u853001528",
											"selection" : [ 0.0, 1.0 ],
											"loop" : 1,
											"content_state" : 											{
												"loop" : 1
											}

										}
 ]
								}

							}
 ],
						"audioCampfire" : [ 							{
								"data" : 								{
									"clips" : [ 										{
											"absolutepath" : "campfire.wav",
											"filename" : "campfire.wav",
											"filekind" : "audiofile",
											"id" : "u515001538",
											"selection" : [ 0.0, 1.0 ],
											"loop" : 1,
											"content_state" : 											{
												"loop" : 1
											}

										}
 ]
								}

							}
 ],
						"audioCrickets" : [ 							{
								"data" : 								{
									"clips" : [ 										{
											"absolutepath" : "crickets.wav",
											"filename" : "crickets.wav",
											"filekind" : "audiofile",
											"id" : "u348001548",
											"selection" : [ 0.0, 1.0 ],
											"loop" : 1,
											"content_state" : 											{
												"loop" : 1
											}

										}
 ]
								}

							}
 ],
						"audioLeaves" : [ 							{
								"data" : 								{
									"clips" : [ 										{
											"absolutepath" : "leaves.wav",
											"filename" : "leaves.wav",
											"filekind" : "audiofile",
											"id" : "u737001558",
											"selection" : [ 0.0, 1.0 ],
											"loop" : 1,
											"content_state" : 											{
												"loop" : 1
											}

										}
 ]
								}

							}
 ],
						"audioRain" : [ 							{
								"data" : 								{
									"clips" : [ 										{
											"absolutepath" : "rain.wav",
											"filename" : "rain.wav",
											"filekind" : "audiofile",
											"id" : "u335001568",
											"selection" : [ 0.0, 1.0 ],
											"loop" : 1,
											"content_state" : 											{
												"loop" : 1
											}

										}
 ]
								}

							}
 ],
						"audioWaterfall" : [ 							{
								"data" : 								{
									"clips" : [ 										{
											"absolutepath" : "waterfall.wav",
											"filename" : "waterfall.wav",
											"filekind" : "audiofile",
											"id" : "u104001578",
											"selection" : [ 0.0, 1.0 ],
											"loop" : 1,
											"content_state" : 											{
												"loop" : 1
											}

										}
 ]
								}

							}
 ],
						"audioWaves" : [ 							{
								"data" : 								{
									"clips" : [ 										{
											"absolutepath" : "waves.wav",
											"filename" : "waves.wav",
											"filekind" : "audiofile",
											"id" : "u716001588",
											"selection" : [ 0.0, 1.0 ],
											"loop" : 1,
											"content_state" : 											{
												"loop" : 1
											}

										}
 ]
								}

							}
 ],
						"audioWind" : [ 							{
								"data" : 								{
									"clips" : [ 										{
											"absolutepath" : "wind.wav",
											"filename" : "wind.wav",
											"filekind" : "audiofile",
											"id" : "u812001598",
											"selection" : [ 0.0, 1.0 ],
											"loop" : 1,
											"content_state" : 											{
												"loop" : 1
											}

										}
 ]
								}

							}
 ],
						"live.gain~[10]" : [ 0.0 ],
						"live.gain~[3]" : [ 0.0 ],
						"live.gain~[4]" : [ 0.0 ],
						"live.gain~[5]" : [ 0.0 ],
						"live.gain~[6]" : [ 0.0 ],
						"live.gain~[7]" : [ 0.0 ],
						"live.gain~[8]" : [ 0.0 ],
						"live.gain~[9]" : [ 0.0 ],
						"on" : [ 0 ],
						"onBirds" : [ 0 ],
						"onCampfire" : [ 0 ],
						"onCrickets" : [ 0 ],
						"onLeaves" : [ 0 ],
						"onRain" : [ 0 ],
						"onWaterfall" : [ 0 ],
						"onWaves" : [ 0 ],
						"onWind" : [ 0 ]
					}
,
					"text" : "autopattr",
					"varname" : "u195003097"
				}

			}
, 			{
				"box" : 				{
					"fontface" : 1,
					"id" : "obj-40",
					"maxclass" : "comment",
					"numinlets" : 1,
					"numoutlets" : 0,
					"patching_rect" : [ 101.0, 481.0, 68.0, 20.0 ],
					"text" : "R"
				}

			}
, 			{
				"box" : 				{
					"id" : "obj-42",
					"maxclass" : "newobj",
					"numinlets" : 2,
					"numoutlets" : 1,
					"outlettype" : [ "signal" ],
					"patching_rect" : [ 101.0, 457.0, 68.0, 22.0 ],
					"text" : "selector~ 1"
				}

			}
, 			{
				"box" : 				{
					"id" : "obj-38",
					"maxclass" : "ezdac~",
					"numinlets" : 2,
					"numoutlets" : 0,
					"patching_rect" : [ 31.0, 503.0, 30.0, 30.0 ]
				}

			}
, 			{
				"box" : 				{
					"fontface" : 1,
					"id" : "obj-32",
					"maxclass" : "comment",
					"numinlets" : 1,
					"numoutlets" : 0,
					"patching_rect" : [ 31.0, 481.0, 68.0, 20.0 ],
					"text" : "L"
				}

			}
, 			{
				"box" : 				{
					"id" : "obj-19",
					"maxclass" : "newobj",
					"numinlets" : 2,
					"numoutlets" : 1,
					"outlettype" : [ "signal" ],
					"patching_rect" : [ 31.0, 457.0, 68.0, 22.0 ],
					"text" : "selector~ 1"
				}

			}
, 			{
				"box" : 				{
					"fontface" : 1,
					"id" : "obj-34",
					"maxclass" : "comment",
					"numinlets" : 1,
					"numoutlets" : 0,
					"patching_rect" : [ 31.0, 535.0, 45.0, 20.0 ],
					"text" : "Signal"
				}

			}
, 			{
				"box" : 				{
					"id" : "obj-25",
					"maxclass" : "message",
					"numinlets" : 2,
					"numoutlets" : 1,
					"outlettype" : [ "" ],
					"patching_rect" : [ 951.0, 239.0, 29.5, 22.0 ],
					"text" : "0"
				}

			}
, 			{
				"box" : 				{
					"id" : "obj-26",
					"maxclass" : "message",
					"numinlets" : 2,
					"numoutlets" : 1,
					"outlettype" : [ "" ],
					"patching_rect" : [ 709.0, 239.0, 29.5, 22.0 ],
					"text" : "0"
				}

			}
, 			{
				"box" : 				{
					"id" : "obj-28",
					"maxclass" : "message",
					"numinlets" : 2,
					"numoutlets" : 1,
					"outlettype" : [ "" ],
					"patching_rect" : [ 467.0, 239.0, 29.5, 22.0 ],
					"text" : "0"
				}

			}
, 			{
				"box" : 				{
					"id" : "obj-30",
					"maxclass" : "message",
					"numinlets" : 2,
					"numoutlets" : 1,
					"outlettype" : [ "" ],
					"patching_rect" : [ 225.0, 239.0, 29.5, 22.0 ],
					"text" : "0"
				}

			}
, 			{
				"box" : 				{
					"id" : "obj-24",
					"maxclass" : "message",
					"numinlets" : 2,
					"numoutlets" : 1,
					"outlettype" : [ "" ],
					"patching_rect" : [ 951.0, 79.0, 29.5, 22.0 ],
					"text" : "0"
				}

			}
, 			{
				"box" : 				{
					"id" : "obj-22",
					"maxclass" : "message",
					"numinlets" : 2,
					"numoutlets" : 1,
					"outlettype" : [ "" ],
					"patching_rect" : [ 709.0, 79.0, 29.5, 22.0 ],
					"text" : "0"
				}

			}
, 			{
				"box" : 				{
					"id" : "obj-21",
					"maxclass" : "message",
					"numinlets" : 2,
					"numoutlets" : 1,
					"outlettype" : [ "" ],
					"patching_rect" : [ 467.0, 79.0, 29.5, 22.0 ],
					"text" : "0"
				}

			}
, 			{
				"box" : 				{
					"id" : "obj-20",
					"maxclass" : "message",
					"numinlets" : 2,
					"numoutlets" : 1,
					"outlettype" : [ "" ],
					"patching_rect" : [ 225.0, 79.0, 29.5, 22.0 ],
					"text" : "0"
				}

			}
, 			{
				"box" : 				{
					"id" : "obj-11",
					"maxclass" : "newobj",
					"numinlets" : 1,
					"numoutlets" : 1,
					"outlettype" : [ "bang" ],
					"patching_rect" : [ 31.0, 55.0, 58.0, 22.0 ],
					"text" : "loadbang"
				}

			}
, 			{
				"box" : 				{
					"id" : "obj-23",
					"maxclass" : "newobj",
					"numinlets" : 0,
					"numoutlets" : 1,
					"outlettype" : [ "" ],
					"patching_rect" : [ 31.0, 31.0, 79.0, 22.0 ],
					"text" : "r globalReset"
				}

			}
, 			{
				"box" : 				{
					"id" : "obj-4",
					"maxclass" : "newobj",
					"numinlets" : 0,
					"numoutlets" : 1,
					"outlettype" : [ "" ],
					"patching_rect" : [ 112.0, 31.0, 80.0, 22.0 ],
					"text" : "r globalOnOff"
				}

			}
, 			{
				"box" : 				{
					"id" : "obj-10",
					"maxclass" : "message",
					"numinlets" : 2,
					"numoutlets" : 1,
					"outlettype" : [ "" ],
					"patching_rect" : [ 31.0, 79.0, 29.5, 22.0 ],
					"text" : "0"
				}

			}
, 			{
				"box" : 				{
					"fontface" : 1,
					"id" : "obj-6",
					"maxclass" : "comment",
					"numinlets" : 1,
					"numoutlets" : 0,
					"patching_rect" : [ 31.0, 156.0, 58.0, 20.0 ],
					"text" : "On/Off"
				}

			}
, 			{
				"box" : 				{
					"bgcolor" : [ 0.0, 0.0, 0.0, 0.0 ],
					"id" : "obj-18",
					"maxclass" : "led",
					"numinlets" : 1,
					"numoutlets" : 1,
					"offcolor" : [ 0.2, 0.2, 0.2, 1.0 ],
					"oncolor" : [ 0.901960784313726, 0.901960784313726, 1.0, 1.0 ],
					"outlettype" : [ "int" ],
					"parameter_enable" : 0,
					"patching_rect" : [ 31.0, 130.0, 24.0, 24.0 ],
					"presentation" : 1,
					"presentation_rect" : [ 20.0, 20.0, 34.0, 34.0 ],
					"varname" : "on"
				}

			}
, 			{
				"box" : 				{
					"basictuning" : 440,
					"clipheight" : 25.0,
					"data" : 					{
						"clips" : [ 							{
								"absolutepath" : "wind.wav",
								"filename" : "wind.wav",
								"filekind" : "audiofile",
								"id" : "u812001598",
								"selection" : [ 0.0, 1.0 ],
								"loop" : 1,
								"content_state" : 								{
									"loop" : 1
								}

							}
 ]
					}
,
					"followglobaltempo" : 0,
					"formantcorrection" : 0,
					"id" : "obj-41",
					"ignoreclick" : 1,
					"maxclass" : "playlist~",
					"mode" : "basic",
					"numinlets" : 1,
					"numoutlets" : 5,
					"originallength" : [ 0.0, "ticks" ],
					"originaltempo" : 120.0,
					"outlettype" : [ "signal", "signal", "signal", "", "dictionary" ],
					"parameter_enable" : 0,
					"patching_rect" : [ 951.0, 289.0, 240.0, 26.0 ],
					"pitchcorrection" : 0,
					"presentation" : 1,
					"presentation_rect" : [ 48.0, 260.0, 240.0, 26.0 ],
					"quality" : "basic",
					"timestretch" : [ 0 ],
					"varname" : "audioWind"
				}

			}
, 			{
				"box" : 				{
					"basictuning" : 440,
					"clipheight" : 25.0,
					"data" : 					{
						"clips" : [ 							{
								"absolutepath" : "waves.wav",
								"filename" : "waves.wav",
								"filekind" : "audiofile",
								"id" : "u716001588",
								"selection" : [ 0.0, 1.0 ],
								"loop" : 1,
								"content_state" : 								{
									"loop" : 1
								}

							}
 ]
					}
,
					"followglobaltempo" : 0,
					"formantcorrection" : 0,
					"id" : "obj-39",
					"ignoreclick" : 1,
					"maxclass" : "playlist~",
					"mode" : "basic",
					"numinlets" : 1,
					"numoutlets" : 5,
					"originallength" : [ 0.0, "ticks" ],
					"originaltempo" : 120.0,
					"outlettype" : [ "signal", "signal", "signal", "", "dictionary" ],
					"parameter_enable" : 0,
					"patching_rect" : [ 709.0, 289.0, 240.0, 26.0 ],
					"pitchcorrection" : 0,
					"presentation" : 1,
					"presentation_rect" : [ 48.0, 232.0, 240.0, 26.0 ],
					"quality" : "basic",
					"timestretch" : [ 0 ],
					"varname" : "audioWaves"
				}

			}
, 			{
				"box" : 				{
					"basictuning" : 440,
					"clipheight" : 25.0,
					"data" : 					{
						"clips" : [ 							{
								"absolutepath" : "waterfall.wav",
								"filename" : "waterfall.wav",
								"filekind" : "audiofile",
								"id" : "u104001578",
								"selection" : [ 0.0, 1.0 ],
								"loop" : 1,
								"content_state" : 								{
									"loop" : 1
								}

							}
 ]
					}
,
					"followglobaltempo" : 0,
					"formantcorrection" : 0,
					"id" : "obj-37",
					"ignoreclick" : 1,
					"maxclass" : "playlist~",
					"mode" : "basic",
					"numinlets" : 1,
					"numoutlets" : 5,
					"originallength" : [ 0.0, "ticks" ],
					"originaltempo" : 120.0,
					"outlettype" : [ "signal", "signal", "signal", "", "dictionary" ],
					"parameter_enable" : 0,
					"patching_rect" : [ 467.0, 289.0, 240.0, 26.0 ],
					"pitchcorrection" : 0,
					"presentation" : 1,
					"presentation_rect" : [ 48.0, 204.0, 240.0, 26.0 ],
					"quality" : "basic",
					"timestretch" : [ 0 ],
					"varname" : "audioWaterfall"
				}

			}
, 			{
				"box" : 				{
					"basictuning" : 440,
					"clipheight" : 26.0,
					"data" : 					{
						"clips" : [ 							{
								"absolutepath" : "rain.wav",
								"filename" : "rain.wav",
								"filekind" : "audiofile",
								"id" : "u335001568",
								"selection" : [ 0.0, 1.0 ],
								"loop" : 1,
								"content_state" : 								{
									"loop" : 1
								}

							}
 ]
					}
,
					"followglobaltempo" : 0,
					"formantcorrection" : 0,
					"id" : "obj-35",
					"ignoreclick" : 1,
					"maxclass" : "playlist~",
					"mode" : "basic",
					"numinlets" : 1,
					"numoutlets" : 5,
					"originallength" : [ 0.0, "ticks" ],
					"originaltempo" : 120.0,
					"outlettype" : [ "signal", "signal", "signal", "", "dictionary" ],
					"parameter_enable" : 0,
					"patching_rect" : [ 225.0, 289.0, 240.0, 26.0 ],
					"pitchcorrection" : 0,
					"presentation" : 1,
					"presentation_rect" : [ 48.0, 176.0, 240.0, 26.0 ],
					"quality" : "basic",
					"timestretch" : [ 0 ],
					"varname" : "audioRain"
				}

			}
, 			{
				"box" : 				{
					"basictuning" : 440,
					"clipheight" : 25.0,
					"data" : 					{
						"clips" : [ 							{
								"absolutepath" : "leaves.wav",
								"filename" : "leaves.wav",
								"filekind" : "audiofile",
								"id" : "u737001558",
								"selection" : [ 0.0, 1.0 ],
								"loop" : 1,
								"content_state" : 								{
									"loop" : 1
								}

							}
 ]
					}
,
					"followglobaltempo" : 0,
					"formantcorrection" : 0,
					"id" : "obj-33",
					"ignoreclick" : 1,
					"maxclass" : "playlist~",
					"mode" : "basic",
					"numinlets" : 1,
					"numoutlets" : 5,
					"originallength" : [ 0.0, "ticks" ],
					"originaltempo" : 120.0,
					"outlettype" : [ "signal", "signal", "signal", "", "dictionary" ],
					"parameter_enable" : 0,
					"patching_rect" : [ 951.0, 129.0, 240.0, 26.0 ],
					"pitchcorrection" : 0,
					"presentation" : 1,
					"presentation_rect" : [ 48.0, 148.0, 240.0, 26.0 ],
					"quality" : "basic",
					"timestretch" : [ 0 ],
					"varname" : "audioLeaves"
				}

			}
, 			{
				"box" : 				{
					"basictuning" : 440,
					"clipheight" : 26.0,
					"data" : 					{
						"clips" : [ 							{
								"absolutepath" : "crickets.wav",
								"filename" : "crickets.wav",
								"filekind" : "audiofile",
								"id" : "u348001548",
								"selection" : [ 0.0, 1.0 ],
								"loop" : 1,
								"content_state" : 								{
									"loop" : 1
								}

							}
 ]
					}
,
					"followglobaltempo" : 0,
					"formantcorrection" : 0,
					"id" : "obj-31",
					"ignoreclick" : 1,
					"maxclass" : "playlist~",
					"mode" : "basic",
					"numinlets" : 1,
					"numoutlets" : 5,
					"originallength" : [ 0.0, "ticks" ],
					"originaltempo" : 120.0,
					"outlettype" : [ "signal", "signal", "signal", "", "dictionary" ],
					"parameter_enable" : 0,
					"patching_rect" : [ 709.0, 129.0, 240.0, 26.0 ],
					"pitchcorrection" : 0,
					"presentation" : 1,
					"presentation_rect" : [ 48.0, 120.0, 240.0, 26.0 ],
					"quality" : "basic",
					"timestretch" : [ 0 ],
					"varname" : "audioCrickets"
				}

			}
, 			{
				"box" : 				{
					"basictuning" : 440,
					"clipheight" : 26.0,
					"data" : 					{
						"clips" : [ 							{
								"absolutepath" : "campfire.wav",
								"filename" : "campfire.wav",
								"filekind" : "audiofile",
								"id" : "u515001538",
								"selection" : [ 0.0, 1.0 ],
								"loop" : 1,
								"content_state" : 								{
									"loop" : 1
								}

							}
 ]
					}
,
					"followglobaltempo" : 0,
					"formantcorrection" : 0,
					"id" : "obj-29",
					"ignoreclick" : 1,
					"maxclass" : "playlist~",
					"mode" : "basic",
					"numinlets" : 1,
					"numoutlets" : 5,
					"originallength" : [ 0.0, "ticks" ],
					"originaltempo" : 120.0,
					"outlettype" : [ "signal", "signal", "signal", "", "dictionary" ],
					"parameter_enable" : 0,
					"patching_rect" : [ 467.0, 129.0, 240.0, 26.0 ],
					"pitchcorrection" : 0,
					"presentation" : 1,
					"presentation_rect" : [ 48.0, 92.0, 240.0, 26.0 ],
					"quality" : "basic",
					"timestretch" : [ 0 ],
					"varname" : "audioCampfire"
				}

			}
, 			{
				"box" : 				{
					"basictuning" : 440,
					"clipheight" : 25.0,
					"data" : 					{
						"clips" : [ 							{
								"absolutepath" : "birds.wav",
								"filename" : "birds.wav",
								"filekind" : "audiofile",
								"id" : "u853001528",
								"selection" : [ 0.0, 1.0 ],
								"loop" : 1,
								"content_state" : 								{
									"loop" : 1
								}

							}
 ]
					}
,
					"followglobaltempo" : 0,
					"formantcorrection" : 0,
					"id" : "obj-27",
					"ignoreclick" : 1,
					"maxclass" : "playlist~",
					"mode" : "basic",
					"numinlets" : 1,
					"numoutlets" : 5,
					"originallength" : [ 0.0, "ticks" ],
					"originaltempo" : 120.0,
					"outlettype" : [ "signal", "signal", "signal", "", "dictionary" ],
					"parameter_enable" : 0,
					"patching_rect" : [ 225.0, 129.0, 240.0, 26.0 ],
					"pitchcorrection" : 0,
					"presentation" : 1,
					"presentation_rect" : [ 48.0, 64.0, 240.0, 26.0 ],
					"quality" : "basic",
					"timestretch" : [ 0 ],
					"varname" : "audioBirds"
				}

			}
, 			{
				"box" : 				{
					"id" : "obj-13",
					"lastchannelcount" : 0,
					"maxclass" : "live.gain~",
					"numinlets" : 2,
					"numoutlets" : 5,
					"orientation" : 1,
					"outlettype" : [ "signal", "signal", "", "float", "list" ],
					"parameter_enable" : 1,
					"patching_rect" : [ 951.0, 317.0, 180.0, 26.0 ],
					"presentation" : 1,
					"presentation_rect" : [ 290.0, 260.0, 178.0, 26.0 ],
					"saved_attribute_attributes" : 					{
						"valueof" : 						{
							"parameter_initial" : [ 0 ],
							"parameter_longname" : "live.gain~[7]",
							"parameter_mmax" : 6.0,
							"parameter_mmin" : -70.0,
							"parameter_modmode" : 0,
							"parameter_shortname" : "live.gain~[1]",
							"parameter_type" : 0,
							"parameter_unitstyle" : 4
						}

					}
,
					"showname" : 0,
					"shownumber" : 0,
					"varname" : "live.gain~[7]"
				}

			}
, 			{
				"box" : 				{
					"id" : "obj-14",
					"lastchannelcount" : 0,
					"maxclass" : "live.gain~",
					"numinlets" : 2,
					"numoutlets" : 5,
					"orientation" : 1,
					"outlettype" : [ "signal", "signal", "", "float", "list" ],
					"parameter_enable" : 1,
					"patching_rect" : [ 709.0, 317.0, 180.0, 26.0 ],
					"presentation" : 1,
					"presentation_rect" : [ 290.0, 232.0, 178.0, 26.0 ],
					"saved_attribute_attributes" : 					{
						"valueof" : 						{
							"parameter_initial" : [ 0 ],
							"parameter_longname" : "live.gain~[8]",
							"parameter_mmax" : 6.0,
							"parameter_mmin" : -70.0,
							"parameter_modmode" : 0,
							"parameter_shortname" : "live.gain~[1]",
							"parameter_type" : 0,
							"parameter_unitstyle" : 4
						}

					}
,
					"showname" : 0,
					"shownumber" : 0,
					"varname" : "live.gain~[8]"
				}

			}
, 			{
				"box" : 				{
					"id" : "obj-15",
					"lastchannelcount" : 0,
					"maxclass" : "live.gain~",
					"numinlets" : 2,
					"numoutlets" : 5,
					"orientation" : 1,
					"outlettype" : [ "signal", "signal", "", "float", "list" ],
					"parameter_enable" : 1,
					"patching_rect" : [ 467.0, 317.0, 180.0, 26.0 ],
					"presentation" : 1,
					"presentation_rect" : [ 290.0, 204.0, 178.0, 26.0 ],
					"saved_attribute_attributes" : 					{
						"valueof" : 						{
							"parameter_initial" : [ 0 ],
							"parameter_longname" : "live.gain~[9]",
							"parameter_mmax" : 6.0,
							"parameter_mmin" : -70.0,
							"parameter_modmode" : 0,
							"parameter_shortname" : "live.gain~[1]",
							"parameter_type" : 0,
							"parameter_unitstyle" : 4
						}

					}
,
					"showname" : 0,
					"shownumber" : 0,
					"varname" : "live.gain~[9]"
				}

			}
, 			{
				"box" : 				{
					"id" : "obj-16",
					"lastchannelcount" : 0,
					"maxclass" : "live.gain~",
					"numinlets" : 2,
					"numoutlets" : 5,
					"orientation" : 1,
					"outlettype" : [ "signal", "signal", "", "float", "list" ],
					"parameter_enable" : 1,
					"patching_rect" : [ 225.0, 317.0, 180.0, 26.0 ],
					"presentation" : 1,
					"presentation_rect" : [ 290.0, 176.0, 178.0, 26.0 ],
					"saved_attribute_attributes" : 					{
						"valueof" : 						{
							"parameter_initial" : [ 0 ],
							"parameter_longname" : "live.gain~[10]",
							"parameter_mmax" : 6.0,
							"parameter_mmin" : -70.0,
							"parameter_modmode" : 0,
							"parameter_shortname" : "live.gain~[1]",
							"parameter_type" : 0,
							"parameter_unitstyle" : 4
						}

					}
,
					"showname" : 0,
					"shownumber" : 0,
					"varname" : "live.gain~[10]"
				}

			}
, 			{
				"box" : 				{
					"id" : "obj-7",
					"lastchannelcount" : 0,
					"maxclass" : "live.gain~",
					"numinlets" : 2,
					"numoutlets" : 5,
					"orientation" : 1,
					"outlettype" : [ "signal", "signal", "", "float", "list" ],
					"parameter_enable" : 1,
					"patching_rect" : [ 951.0, 157.0, 180.0, 26.0 ],
					"presentation" : 1,
					"presentation_rect" : [ 290.0, 148.0, 178.0, 26.0 ],
					"saved_attribute_attributes" : 					{
						"valueof" : 						{
							"parameter_initial" : [ 0 ],
							"parameter_longname" : "live.gain~[5]",
							"parameter_mmax" : 6.0,
							"parameter_mmin" : -70.0,
							"parameter_modmode" : 0,
							"parameter_shortname" : "live.gain~[1]",
							"parameter_type" : 0,
							"parameter_unitstyle" : 4
						}

					}
,
					"showname" : 0,
					"shownumber" : 0,
					"varname" : "live.gain~[5]"
				}

			}
, 			{
				"box" : 				{
					"id" : "obj-12",
					"lastchannelcount" : 0,
					"maxclass" : "live.gain~",
					"numinlets" : 2,
					"numoutlets" : 5,
					"orientation" : 1,
					"outlettype" : [ "signal", "signal", "", "float", "list" ],
					"parameter_enable" : 1,
					"patching_rect" : [ 709.0, 157.0, 180.0, 26.0 ],
					"presentation" : 1,
					"presentation_rect" : [ 290.0, 120.0, 178.0, 26.0 ],
					"saved_attribute_attributes" : 					{
						"valueof" : 						{
							"parameter_initial" : [ 0 ],
							"parameter_longname" : "live.gain~[6]",
							"parameter_mmax" : 6.0,
							"parameter_mmin" : -70.0,
							"parameter_modmode" : 0,
							"parameter_shortname" : "live.gain~[1]",
							"parameter_type" : 0,
							"parameter_unitstyle" : 4
						}

					}
,
					"showname" : 0,
					"shownumber" : 0,
					"varname" : "live.gain~[6]"
				}

			}
, 			{
				"box" : 				{
					"id" : "obj-5",
					"lastchannelcount" : 0,
					"maxclass" : "live.gain~",
					"numinlets" : 2,
					"numoutlets" : 5,
					"orientation" : 1,
					"outlettype" : [ "signal", "signal", "", "float", "list" ],
					"parameter_enable" : 1,
					"patching_rect" : [ 467.0, 157.0, 180.0, 26.0 ],
					"presentation" : 1,
					"presentation_rect" : [ 290.0, 92.0, 178.0, 26.0 ],
					"saved_attribute_attributes" : 					{
						"valueof" : 						{
							"parameter_initial" : [ 0 ],
							"parameter_longname" : "live.gain~[4]",
							"parameter_mmax" : 6.0,
							"parameter_mmin" : -70.0,
							"parameter_modmode" : 0,
							"parameter_shortname" : "live.gain~[1]",
							"parameter_type" : 0,
							"parameter_unitstyle" : 4
						}

					}
,
					"showname" : 0,
					"shownumber" : 0,
					"varname" : "live.gain~[4]"
				}

			}
, 			{
				"box" : 				{
					"id" : "obj-1",
					"lastchannelcount" : 0,
					"maxclass" : "live.gain~",
					"numinlets" : 2,
					"numoutlets" : 5,
					"orientation" : 1,
					"outlettype" : [ "signal", "signal", "", "float", "list" ],
					"parameter_enable" : 1,
					"patching_rect" : [ 225.0, 157.0, 180.0, 26.0 ],
					"presentation" : 1,
					"presentation_rect" : [ 290.0, 64.0, 178.0, 26.0 ],
					"saved_attribute_attributes" : 					{
						"valueof" : 						{
							"parameter_initial" : [ 0 ],
							"parameter_longname" : "live.gain~[3]",
							"parameter_mmax" : 6.0,
							"parameter_mmin" : -70.0,
							"parameter_modmode" : 0,
							"parameter_shortname" : "live.gain~[1]",
							"parameter_type" : 0,
							"parameter_unitstyle" : 4
						}

					}
,
					"showname" : 0,
					"shownumber" : 0,
					"varname" : "live.gain~[3]"
				}

			}
, 			{
				"box" : 				{
					"fontface" : 1,
					"fontsize" : 24.0,
					"id" : "obj-8",
					"maxclass" : "comment",
					"numinlets" : 1,
					"numoutlets" : 0,
					"patching_rect" : [ 161.0, 686.0, 294.0, 34.0 ],
					"presentation" : 1,
					"presentation_rect" : [ 20.0, 20.0, 448.0, 34.0 ],
					"text" : "Audio",
					"textcolor" : [ 0.129411764705882, 0.129411764705882, 0.129411764705882, 1.0 ],
					"textjustification" : 1
				}

			}
, 			{
				"box" : 				{
					"angle" : 270.0,
					"bgcolor" : [ 1.0, 0.749019607843137, 0.501960784313725, 1.0 ],
					"border" : 2,
					"bordercolor" : [ 0.101960784313725, 0.101960784313725, 0.101960784313725, 1.0 ],
					"id" : "obj-9",
					"maxclass" : "panel",
					"mode" : 0,
					"numinlets" : 1,
					"numoutlets" : 0,
					"patching_rect" : [ 31.0, 592.0, 128.0, 128.0 ],
					"presentation" : 1,
					"presentation_rect" : [ 10.0, 10.0, 470.0, 290.0 ],
					"proportion" : 0.5
				}

			}
 ],
		"lines" : [ 			{
				"patchline" : 				{
					"destination" : [ "obj-19", 1 ],
					"midpoints" : [ 234.5, 190.0, 89.5, 190.0 ],
					"source" : [ "obj-1", 0 ]
				}

			}
, 			{
				"patchline" : 				{
					"destination" : [ "obj-42", 1 ],
					"midpoints" : [ 274.75, 199.0, 159.5, 199.0 ],
					"source" : [ "obj-1", 1 ]
				}

			}
, 			{
				"patchline" : 				{
					"color" : [ 1.0, 1.0, 1.0, 0.250980392156863 ],
					"destination" : [ "obj-18", 0 ],
					"source" : [ "obj-10", 0 ]
				}

			}
, 			{
				"patchline" : 				{
					"destination" : [ "obj-10", 0 ],
					"order" : 8,
					"source" : [ "obj-11", 0 ]
				}

			}
, 			{
				"patchline" : 				{
					"color" : [ 1.0, 1.0, 1.0, 0.25 ],
					"destination" : [ "obj-20", 0 ],
					"midpoints" : [ 40.5, 77.0, 234.5, 77.0 ],
					"order" : 7,
					"source" : [ "obj-11", 0 ]
				}

			}
, 			{
				"patchline" : 				{
					"color" : [ 1.0, 1.0, 1.0, 0.25 ],
					"destination" : [ "obj-21", 0 ],
					"midpoints" : [ 40.5, 78.0, 476.5, 78.0 ],
					"order" : 5,
					"source" : [ "obj-11", 0 ]
				}

			}
, 			{
				"patchline" : 				{
					"color" : [ 1.0, 1.0, 1.0, 0.25 ],
					"destination" : [ "obj-22", 0 ],
					"midpoints" : [ 40.5, 76.0, 718.5, 76.0 ],
					"order" : 3,
					"source" : [ "obj-11", 0 ]
				}

			}
, 			{
				"patchline" : 				{
					"color" : [ 1.0, 1.0, 1.0, 0.25 ],
					"destination" : [ "obj-24", 0 ],
					"midpoints" : [ 40.5, 77.0, 960.5, 77.0 ],
					"order" : 1,
					"source" : [ "obj-11", 0 ]
				}

			}
, 			{
				"patchline" : 				{
					"color" : [ 1.0, 1.0, 1.0, 0.25 ],
					"destination" : [ "obj-25", 0 ],
					"midpoints" : [ 40.5, 77.0, 205.0, 77.0, 205.0, 207.0, 960.5, 207.0 ],
					"order" : 0,
					"source" : [ "obj-11", 0 ]
				}

			}
, 			{
				"patchline" : 				{
					"color" : [ 1.0, 1.0, 1.0, 0.25 ],
					"destination" : [ "obj-26", 0 ],
					"midpoints" : [ 40.5, 77.0, 205.0, 77.0, 205.0, 208.0, 718.5, 208.0 ],
					"order" : 2,
					"source" : [ "obj-11", 0 ]
				}

			}
, 			{
				"patchline" : 				{
					"color" : [ 1.0, 1.0, 1.0, 0.25 ],
					"destination" : [ "obj-28", 0 ],
					"midpoints" : [ 40.5, 76.0, 205.0, 76.0, 205.0, 208.0, 476.5, 208.0 ],
					"order" : 4,
					"source" : [ "obj-11", 0 ]
				}

			}
, 			{
				"patchline" : 				{
					"color" : [ 1.0, 1.0, 1.0, 0.25 ],
					"destination" : [ "obj-30", 0 ],
					"midpoints" : [ 40.5, 79.0, 205.0, 79.0, 205.0, 208.0, 234.5, 208.0 ],
					"order" : 6,
					"source" : [ "obj-11", 0 ]
				}

			}
, 			{
				"patchline" : 				{
					"destination" : [ "obj-19", 1 ],
					"midpoints" : [ 718.5, 189.0, 89.5, 189.0 ],
					"source" : [ "obj-12", 0 ]
				}

			}
, 			{
				"patchline" : 				{
					"destination" : [ "obj-42", 1 ],
					"midpoints" : [ 758.75, 200.0, 159.5, 200.0 ],
					"source" : [ "obj-12", 1 ]
				}

			}
, 			{
				"patchline" : 				{
					"destination" : [ "obj-19", 1 ],
					"midpoints" : [ 960.5, 355.0, 89.5, 355.0 ],
					"source" : [ "obj-13", 0 ]
				}

			}
, 			{
				"patchline" : 				{
					"destination" : [ "obj-42", 1 ],
					"midpoints" : [ 1000.75, 366.0, 159.5, 366.0 ],
					"source" : [ "obj-13", 1 ]
				}

			}
, 			{
				"patchline" : 				{
					"destination" : [ "obj-19", 1 ],
					"midpoints" : [ 718.5, 354.0, 89.5, 354.0 ],
					"source" : [ "obj-14", 0 ]
				}

			}
, 			{
				"patchline" : 				{
					"destination" : [ "obj-42", 1 ],
					"midpoints" : [ 758.75, 365.0, 159.5, 365.0 ],
					"source" : [ "obj-14", 1 ]
				}

			}
, 			{
				"patchline" : 				{
					"destination" : [ "obj-19", 1 ],
					"midpoints" : [ 476.5, 353.0, 89.5, 353.0 ],
					"source" : [ "obj-15", 0 ]
				}

			}
, 			{
				"patchline" : 				{
					"destination" : [ "obj-42", 1 ],
					"midpoints" : [ 516.75, 366.0, 159.5, 366.0 ],
					"source" : [ "obj-15", 1 ]
				}

			}
, 			{
				"patchline" : 				{
					"destination" : [ "obj-19", 1 ],
					"midpoints" : [ 234.5, 355.0, 89.5, 355.0 ],
					"source" : [ "obj-16", 0 ]
				}

			}
, 			{
				"patchline" : 				{
					"destination" : [ "obj-42", 1 ],
					"midpoints" : [ 274.75, 366.0, 159.5, 366.0 ],
					"source" : [ "obj-16", 1 ]
				}

			}
, 			{
				"patchline" : 				{
					"color" : [ 1.0, 0.0, 0.0, 0.2 ],
					"destination" : [ "obj-19", 0 ],
					"order" : 1,
					"source" : [ "obj-18", 0 ]
				}

			}
, 			{
				"patchline" : 				{
					"color" : [ 1.0, 0.0, 0.0, 0.2 ],
					"destination" : [ "obj-42", 0 ],
					"midpoints" : [ 40.5, 451.0, 110.5, 451.0 ],
					"order" : 0,
					"source" : [ "obj-18", 0 ]
				}

			}
, 			{
				"patchline" : 				{
					"destination" : [ "obj-38", 0 ],
					"source" : [ "obj-19", 0 ]
				}

			}
, 			{
				"patchline" : 				{
					"destination" : [ "obj-43", 0 ],
					"source" : [ "obj-20", 0 ]
				}

			}
, 			{
				"patchline" : 				{
					"destination" : [ "obj-44", 0 ],
					"source" : [ "obj-21", 0 ]
				}

			}
, 			{
				"patchline" : 				{
					"destination" : [ "obj-45", 0 ],
					"source" : [ "obj-22", 0 ]
				}

			}
, 			{
				"patchline" : 				{
					"destination" : [ "obj-11", 0 ],
					"source" : [ "obj-23", 0 ]
				}

			}
, 			{
				"patchline" : 				{
					"destination" : [ "obj-46", 0 ],
					"source" : [ "obj-24", 0 ]
				}

			}
, 			{
				"patchline" : 				{
					"destination" : [ "obj-50", 0 ],
					"source" : [ "obj-25", 0 ]
				}

			}
, 			{
				"patchline" : 				{
					"destination" : [ "obj-49", 0 ],
					"source" : [ "obj-26", 0 ]
				}

			}
, 			{
				"patchline" : 				{
					"destination" : [ "obj-1", 1 ],
					"source" : [ "obj-27", 1 ]
				}

			}
, 			{
				"patchline" : 				{
					"destination" : [ "obj-1", 0 ],
					"source" : [ "obj-27", 0 ]
				}

			}
, 			{
				"patchline" : 				{
					"destination" : [ "obj-48", 0 ],
					"source" : [ "obj-28", 0 ]
				}

			}
, 			{
				"patchline" : 				{
					"destination" : [ "obj-5", 1 ],
					"source" : [ "obj-29", 1 ]
				}

			}
, 			{
				"patchline" : 				{
					"destination" : [ "obj-5", 0 ],
					"source" : [ "obj-29", 0 ]
				}

			}
, 			{
				"patchline" : 				{
					"destination" : [ "obj-47", 0 ],
					"source" : [ "obj-30", 0 ]
				}

			}
, 			{
				"patchline" : 				{
					"destination" : [ "obj-12", 1 ],
					"source" : [ "obj-31", 1 ]
				}

			}
, 			{
				"patchline" : 				{
					"destination" : [ "obj-12", 0 ],
					"source" : [ "obj-31", 0 ]
				}

			}
, 			{
				"patchline" : 				{
					"destination" : [ "obj-7", 1 ],
					"source" : [ "obj-33", 1 ]
				}

			}
, 			{
				"patchline" : 				{
					"destination" : [ "obj-7", 0 ],
					"source" : [ "obj-33", 0 ]
				}

			}
, 			{
				"patchline" : 				{
					"destination" : [ "obj-16", 1 ],
					"source" : [ "obj-35", 1 ]
				}

			}
, 			{
				"patchline" : 				{
					"destination" : [ "obj-16", 0 ],
					"source" : [ "obj-35", 0 ]
				}

			}
, 			{
				"patchline" : 				{
					"destination" : [ "obj-15", 1 ],
					"source" : [ "obj-37", 1 ]
				}

			}
, 			{
				"patchline" : 				{
					"destination" : [ "obj-15", 0 ],
					"source" : [ "obj-37", 0 ]
				}

			}
, 			{
				"patchline" : 				{
					"destination" : [ "obj-14", 1 ],
					"source" : [ "obj-39", 1 ]
				}

			}
, 			{
				"patchline" : 				{
					"destination" : [ "obj-14", 0 ],
					"source" : [ "obj-39", 0 ]
				}

			}
, 			{
				"patchline" : 				{
					"color" : [ 1.0, 1.0, 1.0, 0.250980392156863 ],
					"destination" : [ "obj-18", 0 ],
					"midpoints" : [ 121.5, 115.0, 40.5, 115.0 ],
					"source" : [ "obj-4", 0 ]
				}

			}
, 			{
				"patchline" : 				{
					"destination" : [ "obj-13", 1 ],
					"source" : [ "obj-41", 1 ]
				}

			}
, 			{
				"patchline" : 				{
					"destination" : [ "obj-13", 0 ],
					"source" : [ "obj-41", 0 ]
				}

			}
, 			{
				"patchline" : 				{
					"destination" : [ "obj-38", 1 ],
					"midpoints" : [ 110.5, 500.0, 51.5, 500.0 ],
					"source" : [ "obj-42", 0 ]
				}

			}
, 			{
				"patchline" : 				{
					"destination" : [ "obj-27", 0 ],
					"source" : [ "obj-43", 0 ]
				}

			}
, 			{
				"patchline" : 				{
					"destination" : [ "obj-29", 0 ],
					"source" : [ "obj-44", 0 ]
				}

			}
, 			{
				"patchline" : 				{
					"destination" : [ "obj-31", 0 ],
					"source" : [ "obj-45", 0 ]
				}

			}
, 			{
				"patchline" : 				{
					"destination" : [ "obj-33", 0 ],
					"source" : [ "obj-46", 0 ]
				}

			}
, 			{
				"patchline" : 				{
					"destination" : [ "obj-35", 0 ],
					"source" : [ "obj-47", 0 ]
				}

			}
, 			{
				"patchline" : 				{
					"destination" : [ "obj-37", 0 ],
					"source" : [ "obj-48", 0 ]
				}

			}
, 			{
				"patchline" : 				{
					"destination" : [ "obj-39", 0 ],
					"source" : [ "obj-49", 0 ]
				}

			}
, 			{
				"patchline" : 				{
					"destination" : [ "obj-19", 1 ],
					"midpoints" : [ 476.5, 190.0, 89.5, 190.0 ],
					"source" : [ "obj-5", 0 ]
				}

			}
, 			{
				"patchline" : 				{
					"destination" : [ "obj-42", 1 ],
					"midpoints" : [ 516.75, 199.0, 159.5, 199.0 ],
					"source" : [ "obj-5", 1 ]
				}

			}
, 			{
				"patchline" : 				{
					"destination" : [ "obj-41", 0 ],
					"source" : [ "obj-50", 0 ]
				}

			}
, 			{
				"patchline" : 				{
					"destination" : [ "obj-19", 1 ],
					"midpoints" : [ 960.5, 190.0, 89.5, 190.0 ],
					"source" : [ "obj-7", 0 ]
				}

			}
, 			{
				"patchline" : 				{
					"destination" : [ "obj-42", 1 ],
					"midpoints" : [ 1000.75, 199.0, 159.5, 199.0 ],
					"source" : [ "obj-7", 1 ]
				}

			}
 ],
		"parameters" : 		{
			"obj-1" : [ "live.gain~[3]", "live.gain~[1]", 0 ],
			"obj-12" : [ "live.gain~[6]", "live.gain~[1]", 0 ],
			"obj-13" : [ "live.gain~[7]", "live.gain~[1]", 0 ],
			"obj-14" : [ "live.gain~[8]", "live.gain~[1]", 0 ],
			"obj-15" : [ "live.gain~[9]", "live.gain~[1]", 0 ],
			"obj-16" : [ "live.gain~[10]", "live.gain~[1]", 0 ],
			"obj-5" : [ "live.gain~[4]", "live.gain~[1]", 0 ],
			"obj-7" : [ "live.gain~[5]", "live.gain~[1]", 0 ],
			"parameterbanks" : 			{
				"0" : 				{
					"index" : 0,
					"name" : "",
					"parameters" : [ "-", "-", "-", "-", "-", "-", "-", "-" ]
				}

			}
,
			"inherited_shortname" : 1
		}
,
		"dependency_cache" : [ 			{
				"name" : "birds.wav",
				"bootpath" : "~/Desktop/File History/MUSC 420/Audio Normalize",
				"patcherrelativepath" : "../../../Audio Normalize",
				"type" : "WAVE",
				"implicit" : 1
			}
, 			{
				"name" : "campfire.wav",
				"bootpath" : "~/Desktop/File History/MUSC 420/Audio Normalize",
				"patcherrelativepath" : "../../../Audio Normalize",
				"type" : "WAVE",
				"implicit" : 1
			}
, 			{
				"name" : "crickets.wav",
				"bootpath" : "~/Desktop/File History/MUSC 420/Audio Normalize",
				"patcherrelativepath" : "../../../Audio Normalize",
				"type" : "WAVE",
				"implicit" : 1
			}
, 			{
				"name" : "leaves.wav",
				"bootpath" : "~/Desktop/File History/MUSC 420/Audio Normalize",
				"patcherrelativepath" : "../../../Audio Normalize",
				"type" : "WAVE",
				"implicit" : 1
			}
, 			{
				"name" : "rain.wav",
				"bootpath" : "~/Desktop/File History/MUSC 420/Audio Normalize",
				"patcherrelativepath" : "../../../Audio Normalize",
				"type" : "WAVE",
				"implicit" : 1
			}
, 			{
				"name" : "waterfall.wav",
				"bootpath" : "~/Desktop/File History/MUSC 420/Audio Normalize",
				"patcherrelativepath" : "../../../Audio Normalize",
				"type" : "WAVE",
				"implicit" : 1
			}
, 			{
				"name" : "waves.wav",
				"bootpath" : "~/Desktop/File History/MUSC 420/Audio Normalize",
				"patcherrelativepath" : "../../../Audio Normalize",
				"type" : "WAVE",
				"implicit" : 1
			}
, 			{
				"name" : "wind.wav",
				"bootpath" : "~/Desktop/File History/MUSC 420/Audio Normalize",
				"patcherrelativepath" : "../../../Audio Normalize",
				"type" : "WAVE",
				"implicit" : 1
			}
 ],
		"autosave" : 0
	}

}
